<svg id="Layer_1" data-name="Layer 1" xmlns="http://www.w3.org/2000/svg" viewBox="0 0 1727.2 1727.2"><defs><style>.cls-1{fill:#fff;}.cls-2{fill:#ed1c24;}</style></defs><path class="cls-1" d="M1315.39,938.7q39.42,51.46,39.41,121,0,54.75-25.45,106.49t-69.53,82.66q-44.07,30.93-108.67,38.05-40.51,4.39-195.45,5.48H682.56V489.78h320.81q95.27,0,142.07,7.94t83.76,33.12q37,25.18,61.59,67.06t24.64,93.89A186.94,186.94,0,0,1,1285,795.26q-30.37,47.1-82.39,70.62Q1276,887.24,1315.39,938.7Zm-128.07,113.35q0-36.13-17.52-61.32T1119.16,954Q1086,942.53,975.45,942.53H844.61v214.6h150q87.6,0,111.14-4.92,36.13-6.57,58.85-32T1187.32,1052.05Zm-29.56-337.22q0-37.22-20.53-60.49t-61-28.2q-24.09-2.73-138.51-2.73l-93.11,0V809H950.82q94.71,0,117.7-2.74,41.61-4.92,65.42-28.74T1157.76,714.83Z" transform="translate(-137.67 -136.4)"/><rect class="cls-2" x="544.89" y="1246.48" width="672.28" height="135.22"/><path d="M1001.27,136.4c477,0,863.6,386.65,863.6,863.6s-386.65,863.6-863.6,863.6S137.67,1477,137.67,1000,524.32,136.4,1001.27,136.4Zm353.57,1381.7V1382.88H682.56V1518.1Zm0-458.4q0-69.54-39.41-121t-112.78-72.82q52-23.52,82.39-70.62a186.94,186.94,0,0,0,30.43-103.47q0-52-24.64-93.89t-61.59-67.06q-37-25.19-83.76-33.12t-142.07-7.94H682.56v802.6H955.7q154.93-1.1,195.45-5.48,64.61-7.12,108.67-38.05t69.53-82.66Q1354.8,1114.46,1354.8,1059.7Z" transform="translate(-137.67 -136.4)"/><path d="M1169.8,990.73q17.52,25.18,17.52,61.32,0,42.73-22.72,68.16t-58.85,32q-23.54,4.92-111.14,4.92h-150V942.53H975.45q110.55,0,143.71,11.47T1169.8,990.73Z" transform="translate(-137.67 -136.4)"/><path d="M1137.23,654.34q20.54,23.28,20.53,60.49,0,38.86-23.82,62.69t-65.42,28.74q-23,2.75-117.7,2.74H844.61V623.36l93.11,0q114.42,0,138.51,2.73Q1116.7,631.06,1137.23,654.34Z" transform="translate(-137.67 -136.4)"/></svg>